# xmcd CD database file
#
# Track frame offsets:
#	150
#	19702
#	33457
#	51367
#	68932
#	85805
#	100642
#	114302
#	145250
#	162492
#	184757
#	202927
#	219945
#	241077
#
# Disc length: 3495 seconds
#
# Revision: 0
# Processed by: cddbd v1.4PL0 Copyright (c) Steve Scherf et al.
# Submitted via: CDex 1.50beta10
#
DISCID=b70da50e
DTITLE=Chris Thomas King and Blind Mississippi Morris - Along The Blues Highway
DYEAR=2003
DGENRE=Blues
TTITLE0=Red Mud
TTITLE1=Why
TTITLE2=Soon This Morning Blues
TTITLE3=I'm On Fire
TTITLE4=Alive
TTITLE5=Me, My Guitar And The Blues
TTITLE6=O Brother Where Art Thou
TTITLE7=Dust My Broom
TTITLE8=You Know I Like That
TTITLE9=Willie
TTITLE10=Beale Street Tonight
TTITLE11=Bad To Worse
TTITLE12=Night Roads
TTITLE13=Going Back to Louisiana
EXTD=YEAR: 2003
EXTT0=
EXTT1=
EXTT2=
EXTT3=
EXTT4=
EXTT5=
EXTT6=
EXTT7=
EXTT8=
EXTT9=
EXTT10=
EXTT11=
EXTT12=
EXTT13=
PLAYORDER=
